HIERARCHY
ROOT Hips
{
	OFFSET 0.000000 83.214638 0.000000
	CHANNELS 6 Xposition Yposition Zposition Xrotation Yrotation Zrotation
	JOINT Pelvis
	{
		OFFSET 0.000000 0.000000 0.000000
		CHANNELS 3 Xrotation Yrotation Zrotation
		JOINT LeftUpLeg
		{
			OFFSET 8.479700 -4.795502 -0.379100
			CHANNELS 3 Xrotation Yrotation Zrotation
			JOINT LeftLeg
			{
				OFFSET 0.024144 -32.555107 0.112900
				CHANNELS 3 Xrotation Yrotation Zrotation
				JOINT LeftFoot
				{
					OFFSET -0.024144 -32.638630 -3.012600
					CHANNELS 3 Xrotation Yrotation Zrotation
					JOINT LeftToeBase
					{
						OFFSET 0.970200 -13.225400 11.864200
						CHANNELS 3 Xrotation Yrotation Zrotation
						End Site
						{
							OFFSET 0.000000 12.319262 0.000000
						}
					}
					JOINT LFootTongue
					{
						OFFSET 1.142400 -1.059800 6.665200
						CHANNELS 3 Xrotation Yrotation Zrotation
						End Site
						{
							OFFSET 0.000000 12.319262 0.000000
						}
					}
				}
				JOINT LeftPantLeg
				{
					OFFSET 0.918482 -16.533964 -2.284700
					CHANNELS 3 Xrotation Yrotation Zrotation
					End Site
					{
						OFFSET 0.350399 24.744368 0.000000
					}
				}
			}
		}
		JOINT RightUpLeg
		{
			OFFSET -8.479700 -4.795502 -0.379100
			CHANNELS 3 Xrotation Yrotation Zrotation
			JOINT RightLeg
			{
				OFFSET -0.023144 -32.555092 0.112900
				CHANNELS 3 Xrotation Yrotation Zrotation
				JOINT RightFoot
				{
					OFFSET 0.023144 -32.638641 -3.012700
					CHANNELS 3 Xrotation Yrotation Zrotation
					JOINT RightToeBase
					{
						OFFSET -0.970200 -13.225400 11.864200
						CHANNELS 3 Xrotation Yrotation Zrotation
						End Site
						{
							OFFSET 0.000000 12.319244 0.000000
						}
					}
					JOINT RFootTongue
					{
						OFFSET -1.142200 -1.059800 6.665200
						CHANNELS 3 Xrotation Yrotation Zrotation
						End Site
						{
							OFFSET 0.000000 12.319243 0.000000
						}
					}
				}
				JOINT RightPantLeg
				{
					OFFSET -0.919482 -16.533978 -2.284800
					CHANNELS 3 Xrotation Yrotation Zrotation
					End Site
					{
						OFFSET -0.350400 24.744419 0.000000
					}
				}
			}
		}
	}
	JOINT Spine
	{
		OFFSET 0.000000 7.722000 1.166200
		CHANNELS 3 Xrotation Yrotation Zrotation
		JOINT Spine1
		{
			OFFSET 0.000000 12.024101 0.248800
			CHANNELS 3 Xrotation Yrotation Zrotation
			JOINT Spine2
			{
				OFFSET 0.000000 11.502998 -0.491200
				CHANNELS 3 Xrotation Yrotation Zrotation
				JOINT Neck
				{
					OFFSET 0.000000 18.430702 -3.123100
					CHANNELS 3 Xrotation Yrotation Zrotation
					JOINT Head
					{
						OFFSET 0.000000 9.051102 1.034000
						CHANNELS 3 Xrotation Yrotation Zrotation
						JOINT HairB
						{
							OFFSET 0.208400 24.786102 24.822300
							CHANNELS 3 Xrotation Yrotation Zrotation
							End Site
							{
								OFFSET 0.000000 32.263779 0.000000
							}
						}
						JOINT HairA
						{
							OFFSET -7.081100 24.428299 23.196600
							CHANNELS 3 Xrotation Yrotation Zrotation
							End Site
							{
								OFFSET 0.000000 32.263779 0.000000
							}
						}
						JOINT Hat
						{
							OFFSET 16.728800 15.048294 -15.439601
							CHANNELS 3 Xrotation Yrotation Zrotation
							End Site
							{
								OFFSET 0.000000 32.263779 0.000000
							}
						}
					}
				}
				JOINT LeftShoulder
				{
					OFFSET 6.197800 13.665199 -4.064700
					CHANNELS 3 Xrotation Yrotation Zrotation
					JOINT LeftArm
					{
						OFFSET 7.778100 -0.187103 -1.709300
						CHANNELS 3 Xrotation Yrotation Zrotation
						JOINT LeftForeArm
						{
							OFFSET 22.049376 0.000000 0.000000
							CHANNELS 3 Xrotation Yrotation Zrotation
							JOINT LeftHand
							{
								OFFSET 23.009392 0.000000 0.000000
								CHANNELS 3 Xrotation Yrotation Zrotation
								JOINT LeftHandThumb1
								{
									OFFSET 3.507191 -2.063065 3.133727
									CHANNELS 3 Xrotation Yrotation Zrotation
									JOINT LeftHandThumb2
									{
										OFFSET 3.101337 -1.790558 1.790558
										CHANNELS 3 Xrotation Yrotation Zrotation
										JOINT LeftHandThumb3
										{
											OFFSET 3.058640 -1.765907 1.765906
											CHANNELS 3 Xrotation Yrotation Zrotation
											End Site
											{
												OFFSET -0.415260 3.926476 -0.049563
											}
										}
									}
								}
								JOINT LeftHandIndex1
								{
									OFFSET 11.334419 -0.901459 3.706815
									CHANNELS 3 Xrotation Yrotation Zrotation
									JOINT LeftHandIndex2
									{
										OFFSET 3.283112 0.000000 0.000000
										CHANNELS 3 Xrotation Yrotation Zrotation
										JOINT LeftHandIndex3
										{
											OFFSET 3.323853 0.000000 0.000000
											CHANNELS 3 Xrotation Yrotation Zrotation
											End Site
											{
												OFFSET -1.135597 3.097809 0.402452
											}
										}
									}
								}
								JOINT LeftHandMiddle1
								{
									OFFSET 11.335861 0.000000 0.000000
									CHANNELS 3 Xrotation Yrotation Zrotation
									JOINT LeftHandMiddle2
									{
										OFFSET 3.410492 0.000000 0.000000
										CHANNELS 3 Xrotation Yrotation Zrotation
										JOINT LeftHandMiddle3
										{
											OFFSET 3.312172 0.000000 0.000000
											CHANNELS 3 Xrotation Yrotation Zrotation
											End Site
											{
												OFFSET -1.150200 3.080154 0.400270
											}
										}
									}
								}
								JOINT LeftHandRing1
								{
									OFFSET 11.514786 -0.013176 -3.003090
									CHANNELS 3 Xrotation Yrotation Zrotation
									JOINT LeftHandRing2
									{
										OFFSET 3.053307 0.000000 0.000000
										CHANNELS 3 Xrotation Yrotation Zrotation
										JOINT LeftHandRing3
										{
											OFFSET 3.295807 0.000000 0.000000
											CHANNELS 3 Xrotation Yrotation Zrotation
											End Site
											{
												OFFSET -1.281006 3.013344 0.375733
											}
										}
									}
								}
								JOINT LeftHandPinky1
								{
									OFFSET 10.518692 -0.960396 -5.730441
									CHANNELS 3 Xrotation Yrotation Zrotation
									JOINT LeftHandPinky2
									{
										OFFSET 2.861649 0.000000 0.000000
										CHANNELS 3 Xrotation Yrotation Zrotation
										JOINT LeftHandPinky3
										{
											OFFSET 2.863380 0.000000 0.000000
											CHANNELS 3 Xrotation Yrotation Zrotation
											End Site
											{
												OFFSET -0.843597 2.711159 0.369971
											}
										}
									}
								}
							}
							JOINT LSleeve
							{
								OFFSET 6.676277 -0.344902 -1.011730
								CHANNELS 3 Xrotation Yrotation Zrotation
								End Site
								{
									OFFSET 0.000000 14.885353 0.000000
								}
							}
						}
					}
				}
				JOINT RightShoulder
				{
					OFFSET -6.197800 13.665199 -4.064700
					CHANNELS 3 Xrotation Yrotation Zrotation
					JOINT RightArm
					{
						OFFSET -7.778100 -0.187103 -1.709300
						CHANNELS 3 Xrotation Yrotation Zrotation
						JOINT RightForeArm
						{
							OFFSET -22.049376 0.000000 0.000000
							CHANNELS 3 Xrotation Yrotation Zrotation
							JOINT RightHand
							{
								OFFSET -23.009392 0.000000 0.000000
								CHANNELS 3 Xrotation Yrotation Zrotation
								JOINT RightHandThumb1
								{
									OFFSET -3.507191 -2.063065 3.133727
									CHANNELS 3 Xrotation Yrotation Zrotation
									JOINT RightHandThumb2
									{
										OFFSET -3.101337 -1.790558 1.790558
										CHANNELS 3 Xrotation Yrotation Zrotation
										JOINT RightHandThumb3
										{
											OFFSET -3.058640 -1.765907 1.765906
											CHANNELS 3 Xrotation Yrotation Zrotation
											End Site
											{
												OFFSET 0.415260 3.926476 -0.049563
											}
										}
									}
								}
								JOINT RightHandIndex1
								{
									OFFSET -11.334419 -0.901459 3.706815
									CHANNELS 3 Xrotation Yrotation Zrotation
									JOINT RightHandIndex2
									{
										OFFSET -3.283112 0.000000 0.000000
										CHANNELS 3 Xrotation Yrotation Zrotation
										JOINT RightHandIndex3
										{
											OFFSET -3.323853 0.000000 0.000000
											CHANNELS 3 Xrotation Yrotation Zrotation
											End Site
											{
												OFFSET 1.135597 3.097809 0.402452
											}
										}
									}
								}
								JOINT RightHandMiddle1
								{
									OFFSET -11.335861 0.000000 0.000000
									CHANNELS 3 Xrotation Yrotation Zrotation
									JOINT RightHandMiddle2
									{
										OFFSET -3.410492 0.000000 0.000000
										CHANNELS 3 Xrotation Yrotation Zrotation
										JOINT RightHandMiddle3
										{
											OFFSET -3.312172 0.000000 0.000000
											CHANNELS 3 Xrotation Yrotation Zrotation
											End Site
											{
												OFFSET 1.150200 3.080154 0.400270
											}
										}
									}
								}
								JOINT RightHandRing1
								{
									OFFSET -11.514786 -0.013176 -3.003090
									CHANNELS 3 Xrotation Yrotation Zrotation
									JOINT RightHandRing2
									{
										OFFSET -3.053307 0.000000 0.000000
										CHANNELS 3 Xrotation Yrotation Zrotation
										JOINT RightHandRing3
										{
											OFFSET -3.295807 0.000000 0.000000
											CHANNELS 3 Xrotation Yrotation Zrotation
											End Site
											{
												OFFSET 1.281006 3.013344 0.375733
											}
										}
									}
								}
								JOINT RightHandPinky1
								{
									OFFSET -10.518692 -0.960396 -5.730441
									CHANNELS 3 Xrotation Yrotation Zrotation
									JOINT RightHandPinky2
									{
										OFFSET -2.861649 0.000000 0.000000
										CHANNELS 3 Xrotation Yrotation Zrotation
										JOINT RightHandPinky3
										{
											OFFSET -2.863380 0.000000 0.000000
											CHANNELS 3 Xrotation Yrotation Zrotation
											End Site
											{
												OFFSET 0.843597 2.711159 0.369971
											}
										}
									}
								}
							}
							JOINT RSleeve
							{
								OFFSET -6.676277 -0.344902 -1.011730
								CHANNELS 3 Xrotation Yrotation Zrotation
								End Site
								{
									OFFSET 0.000000 14.885353 0.000000
								}
							}
						}
					}
				}
				JOINT Backpack
				{
					OFFSET 0.000000 -2.471497 36.677502
					CHANNELS 3 Xrotation Yrotation Zrotation
					End Site
					{
						OFFSET 0.000000 20.427315 0.000000
					}
				}
				JOINT Hood
				{
					OFFSET 0.000000 18.754097 -10.431000
					CHANNELS 3 Xrotation Yrotation Zrotation
					JOINT Hood1
					{
						OFFSET 0.000000 -5.011002 -7.685901
						CHANNELS 3 Xrotation Yrotation Zrotation
						End Site
						{
							OFFSET 0.000000 9.175140 0.000000
						}
					}
				}
				JOINT LHoodieString
				{
					OFFSET 5.250500 16.397697 3.089900
					CHANNELS 3 Xrotation Yrotation Zrotation
					JOINT LHoodieString1
					{
						OFFSET 0.257700 -6.364304 3.694600
						CHANNELS 3 Xrotation Yrotation Zrotation
						JOINT LHoodieString2
						{
							OFFSET 0.000000 -9.643799 2.679100
							CHANNELS 3 Xrotation Yrotation Zrotation
							End Site
							{
								OFFSET 0.000000 10.009018 0.000000
							}
						}
					}
				}
				JOINT RHoodieString
				{
					OFFSET -5.250500 16.397697 3.089900
					CHANNELS 3 Xrotation Yrotation Zrotation
					JOINT RHoodieString1
					{
						OFFSET -0.257700 -6.364304 3.694600
						CHANNELS 3 Xrotation Yrotation Zrotation
						JOINT RHoodieString2
						{
							OFFSET 0.000000 -9.643799 2.679100
							CHANNELS 3 Xrotation Yrotation Zrotation
							End Site
							{
								OFFSET 0.000000 10.009018 0.000000
							}
						}
					}
				}
			}
			JOINT LBackpack_Strap
			{
				OFFSET 15.223200 -7.719803 -6.610900
				CHANNELS 3 Xrotation Yrotation Zrotation
				End Site
				{
					OFFSET 0.000000 16.040596 0.000000
				}
			}
			JOINT RBackpack_Strap
			{
				OFFSET -15.223000 -7.719803 -6.610900
				CHANNELS 3 Xrotation Yrotation Zrotation
				End Site
				{
					OFFSET 0.000000 16.040596 0.000000
				}
			}
		}
	}
	JOINT BoyFacialAnim_Joint
	{
		OFFSET 1.000000 -82.208099 -1.550900
		CHANNELS 3 Xrotation Yrotation Zrotation
		End Site
		{
			OFFSET 0.000000 30.012791 0.000000
		}
	}
}
MOTION
Frames: 4
Frame Time: 0.016667
-0.265559 74.620651 -0.166955 -10.681585 -53.624355 -2.410594 0.000001 -0.000001 -0.000000 -24.687652 14.792885 20.099254 40.185736 -3.554023 -0.796280 -6.065640 1.393151 -14.312474 0.000000 0.000000 0.000000 0.000000 0.000000 0.000000 -0.000000 0.000000 0.000001 -25.248952 -0.591090 -20.600400 50.924186 3.282467 -8.036466 -17.619870 -3.351189 16.202626 -0.000000 0.000000 0.000000 -0.000000 0.000000 0.000000 0.000003 -0.000000 -0.000000 6.703052 0.909713 -2.659360 13.440116 1.505924 -5.282126 13.440109 1.505927 -5.282123 3.996212 2.607474 -0.466376 -8.638510 40.681314 -5.376918 0.000000 0.000000 0.000001 0.000000 0.000000 0.000001 0.000000 0.000000 0.000001 -0.177264 -6.033953 5.204531 -21.071654 17.785777 -57.231480 0.000003 -126.318762 0.000003 -6.641479 -5.398326 -3.626827 -2.154151 6.800153 9.892471 25.836145 36.182415 -25.085229 -0.000002 0.000002 0.000001 20.887369 7.645971 -92.409618 7.469763 5.623449 -106.086874 -0.000004 0.000001 -0.000005 12.668637 7.118958 -99.980459 7.120948 5.712073 -102.555994 0.000000 -0.000002 -0.000002 5.682287 8.252698 -95.779463 8.216140 5.353290 -113.878754 0.000002 0.000000 0.000001 -3.644692 8.906844 -93.940024 7.168210 5.701406 -103.031068 -0.000003 -0.000002 -0.000001 -0.000002 0.000001 0.000004 10.920052 26.931043 3.130401 -46.478184 38.185860 48.496095 0.000089 110.564486 -0.000091 -26.511550 16.043030 15.588611 -8.123092 -3.695111 -18.700518 26.149366 -37.962092 25.226218 -0.000001 -0.000001 -0.000002 19.570637 -6.576502 91.648523 5.944072 -4.476226 106.057661 -0.000003 -0.000001 0.000002 11.200847 -5.955912 99.192693 5.666694 -4.546667 102.532723 -0.000000 0.000000 -0.000002 4.287406 -6.986210 95.001600 6.537633 -4.261398 113.838141 -0.000001 -0.000000 0.000002 -5.006121 -7.516072 93.188137 5.704273 -4.538211 103.006943 -0.000000 -0.000001 -0.000002 -0.000001 -0.000001 -0.000000 0.000003 -0.000001 0.000001 0.000003 -0.000001 0.000001 0.000003 -0.000001 0.000001 0.000003 -0.000001 0.000001 0.000003 -0.000001 0.000001 0.000002 -0.000002 0.000000 0.000003 -0.000001 0.000001 0.000003 -0.000001 0.000001 0.000002 -0.000002 0.000000 -0.000000 -0.000003 0.000001 -0.000000 -0.000003 0.000001 0.000001 -0.000001 -0.000000 
-0.750260 74.645607 -0.740225 -10.904178 -53.127073 -2.070461 0.000000 0.000001 0.000000 -23.795833 14.546874 19.520916 38.701395 -4.144057 -0.290834 -5.155791 2.195153 -14.920243 0.000000 -0.000003 0.000000 0.000000 -0.000003 0.000000 -0.000000 -0.000000 -0.000000 -25.349513 -0.753366 -20.469329 52.000190 2.818439 -7.848623 -18.864499 -3.635779 14.228147 -0.000000 -0.000001 0.000000 -0.000000 -0.000001 0.000000 -0.000002 -0.000002 -0.000002 6.884437 0.461814 -3.227401 13.428627 1.385318 -5.296947 13.420775 1.411916 -5.309466 4.071266 2.649590 -0.515532 -6.896900 40.845170 -6.341608 0.000001 -0.000000 -0.000000 0.000001 -0.000000 -0.000000 0.000001 -0.000000 -0.000000 -0.474786 -6.155471 3.198673 -17.792055 18.997978 -56.885995 0.000001 -127.660662 -0.000003 -8.813700 -2.100050 4.977260 -2.188146 6.630865 9.840804 25.854706 36.200044 -25.080875 0.000001 0.000001 0.000005 20.610408 7.814810 -91.789253 7.445547 5.630349 -105.840003 -0.000001 -0.000002 -0.000002 12.580239 7.208647 -99.250210 7.098238 5.717049 -102.328070 0.000006 -0.000002 -0.000002 5.709288 8.240791 -95.092817 8.194811 5.362636 -113.650366 0.000001 0.000001 -0.000000 -3.440385 8.797276 -93.391731 7.145266 5.706640 -102.800317 0.000002 0.000001 -0.000000 -0.000001 0.000005 0.000004 10.865812 26.827600 2.963925 -46.847871 38.723590 50.356574 0.000052 107.879471 -0.000046 -24.744585 13.727482 13.795267 -8.127553 -3.556529 -18.647070 26.048262 -37.885021 25.176156 0.000000 -0.000001 -0.000003 19.390050 -6.733592 91.056155 5.924132 -4.481901 105.802342 -0.000003 -0.000000 0.000002 11.102800 -6.063381 98.288567 5.648057 -4.550766 102.297635 -0.000001 -0.000002 -0.000002 4.274409 -6.978791 94.402442 6.520050 -4.269115 113.601646 0.000000 -0.000001 0.000002 -4.791111 -7.407624 92.634946 5.686479 -4.542255 102.782360 -0.000004 -0.000003 0.000001 0.000002 0.000000 -0.000001 -0.000001 0.000004 -0.000000 -0.000001 0.000004 -0.000000 -0.000001 0.000004 -0.000000 -0.000001 0.000004 -0.000000 -0.000001 0.000004 -0.000001 -0.000001 -0.000001 0.000000 -0.000001 0.000004 -0.000000 -0.000001 0.000004 -0.000001 -0.000001 -0.000001 0.000000 0.000000 0.000001 -0.000001 0.000000 0.000001 -0.000001 0.000000 0.000001 0.000000 
-1.186113 74.700470 -1.529230 -10.730458 -52.071296 -1.524499 0.000000 0.000000 0.000001 -23.137665 13.658894 18.752964 36.729458 -3.774039 0.517139 -3.629376 2.231542 -15.967599 0.000000 0.000002 -0.000000 0.000000 0.000002 -0.000000 0.000001 -0.000000 0.000002 -25.405367 -0.946517 -20.189906 52.848688 2.489557 -7.481010 -19.689190 -4.441153 12.694067 -0.000000 0.000000 -0.000000 -0.000000 0.000000 -0.000000 0.000001 0.000001 -0.000003 7.705304 0.246440 -3.812645 13.471027 1.247508 -5.375651 13.463746 1.291635 -5.383111 3.970768 2.575121 -0.513153 -6.939625 39.500306 -7.024648 -0.000000 0.000000 -0.000001 -0.000000 0.000000 -0.000001 -0.000000 0.000000 -0.000001 -0.604227 -6.510271 2.042941 -15.274320 19.486417 -56.458067 -0.000004 -128.879632 0.000001 -13.542289 1.471578 15.982697 -2.260602 6.272418 9.731067 25.893621 36.237213 -25.070909 0.000002 -0.000000 -0.000000 20.016846 8.154985 -90.469325 7.394032 5.644646 -105.315390 0.000001 0.000001 -0.000005 12.388804 7.393814 -97.702058 7.049939 5.727333 -101.843749 0.000000 -0.000001 0.000002 5.767027 8.220502 -93.638233 8.149365 5.382246 -113.164849 0.000000 0.000000 -0.000000 -3.004436 8.580146 -92.228051 7.096485 5.717446 -102.310292 -0.000000 0.000002 0.000000 -0.000002 -0.000003 -0.000001 10.874063 26.686434 2.331213 -47.669878 38.728959 52.535670 0.000295 105.112670 -0.000299 -23.149364 9.982419 13.220436 -8.137354 -3.262899 -18.533822 25.834263 -37.721178 25.070337 -0.000001 -0.000001 0.000001 19.001480 -7.055803 89.797023 5.881626 -4.493675 105.259239 -0.000003 -0.000002 -0.000000 10.888998 -6.283873 96.371531 5.608353 -4.559202 101.797713 0.000003 0.000004 -0.000001 4.247085 -6.963873 93.132464 6.482511 -4.285273 113.098377 -0.000002 -0.000005 0.000001 -4.332492 -7.193208 91.460092 5.648649 -4.550669 102.304752 -0.000001 0.000001 0.000000 -0.000000 -0.000001 0.000002 -0.000000 0.000002 0.000001 -0.000000 0.000002 0.000001 -0.000000 0.000002 0.000001 -0.000000 0.000002 0.000001 -0.000000 0.000002 0.000000 0.000001 0.000001 -0.000001 -0.000000 0.000002 0.000001 -0.000000 0.000002 0.000000 0.000001 0.000001 -0.000001 -0.000000 -0.000001 0.000000 -0.000000 -0.000001 0.000000 0.000000 0.000000 0.000001 
-1.569716 74.745132 -2.465493 -10.379592 -50.551439 -0.943503 0.000000 -0.000000 -0.000000 -23.513807 12.016858 18.293501 35.267354 -3.293821 1.502616 0.185666 1.447510 -17.997043 -0.000000 0.000002 -0.000000 -0.000000 0.000002 -0.000000 -0.000000 0.000002 -0.000000 -25.460244 -1.244478 -19.780744 53.656552 2.213469 -6.964419 -20.465731 -5.624120 11.053702 -0.000000 -0.000001 0.000000 -0.000000 -0.000001 0.000000 -0.000001 -0.000001 -0.000001 9.084729 0.214154 -4.319304 13.571645 1.134050 -5.519534 13.568756 1.181515 -5.516786 3.692163 2.416203 -0.492102 -8.158104 37.043483 -7.461729 -0.000002 -0.000000 -0.000000 -0.000002 -0.000000 -0.000000 -0.000002 -0.000000 -0.000000 -0.610940 -7.055525 1.499515 -13.733017 19.141701 -55.614433 -0.000006 -129.834629 0.000004 -19.817055 3.436075 27.557061 -2.360264 5.784480 9.581069 25.946483 36.287753 -25.056986 0.000000 -0.000001 -0.000001 19.194881 8.579354 -88.660056 7.323536 5.663386 -104.599860 -0.000002 0.000000 -0.000004 12.119561 7.635073 -95.591400 6.983964 5.740702 -101.183338 -0.000000 -0.000003 0.000003 5.846708 8.203626 -91.657444 8.087077 5.408329 -112.502634 0.000001 -0.000000 -0.000000 -2.404217 8.317332 -90.638782 7.029851 5.731524 -101.642176 0.000001 0.000001 0.000002 -0.000001 0.000000 0.000004 10.915529 26.508835 1.381149 -49.008813 38.270151 54.704990 -0.000351 102.389529 0.000347 -21.485279 5.843201 12.774773 -8.151692 -2.862856 -18.379831 25.543970 -37.497216 24.927991 0.000001 0.000000 -0.000001 18.460355 -7.470858 88.074347 5.823472 -4.509092 104.518212 -0.000001 0.000002 0.000000 10.585453 -6.567978 93.757597 5.554081 -4.570185 101.115609 -0.000000 -0.000001 -0.000002 4.210454 -6.945322 91.402527 6.431079 -4.306779 112.411677 -0.000001 -0.000003 0.000002 -3.701462 -6.935054 89.854963 5.596876 -4.561611 101.653084 -0.000001 -0.000001 0.000000 0.000001 -0.000001 -0.000001 0.000002 -0.000002 0.000001 0.000002 -0.000002 0.000001 0.000002 -0.000002 0.000001 0.000002 -0.000002 0.000001 0.000002 -0.000002 -0.000000 -0.000000 0.000001 -0.000002 0.000002 -0.000002 0.000001 0.000002 -0.000002 -0.000000 -0.000000 0.000001 -0.000002 -0.000000 0.000002 0.000000 -0.000000 0.000002 0.000000 0.000000 -0.000000 -0.000000 
